<?xml version="1.0" encoding="UTF-8"?>
<svg version="1.1" viewBox="0 0 900 900" width="1280" height="1280" xmlns="http://www.w3.org/2000/svg">
<path transform="translate(0)" d="m0 0h900v900h-900z" fill="#FCFCFC"/>
<path transform="translate(0)" d="m0 0h900v900h-900zm438 15-13 5-10 6-9 9-8 14-4 16v11l1 8h-30l-62 1-8 3-10 9-2 4-1 11h-80l-18 3-10 4-10 7-9 8-7 10-5 11-2 12v598l4 13 9 14 10 10 11 7 8 4 10 2h515l8-2 16-8 9-7 10-13 5-10 3-12-1-600-4-13-6-11-9-10-7-6-14-7-12-3-1-1h-88v-9l-4-7-8-8-4-3-28-1h-68l1-8v-10l-4-16-6-11-9-10-7-6-13-6-8-2z" fill="#FCFCFC"/>
<path transform="translate(438,15)" d="m0 0h21l13 4 11 6 11 11 8 14 4 16v10l-1 8h68l28 1 12 11 4 7v9h88l18 6 12 7 11 11 8 14 4 13 1 600-4 14-6 11-8 10-12 9-15 7-6 1h-515l-10-2-12-6-10-8-8-8-8-13-4-13v-598l2-12 8-16 10-11 10-7 10-5 7-2 14-2h80l1-11 4-6 8-7 8-3 62-1h30l-1-8v-11l4-16 6-11 9-10 8-6 11-5zm-242 126-1 2v564l1 52 1 1 297-2h209l1-1v-599l-1-17h-85v41l-337 1 1-40-1-2z" fill="#CCAA8F"/>
<path transform="translate(438,15)" d="m0 0h21l13 4 11 6 11 11 8 14 4 16v10l-1 8h68l28 1 12 11 4 7v9h88v1h-87l1 27h82v1h-83l1 13v28l-1 1h-337v-42h-84v-1h84v-27h-79v-1h80l1-11 4-6 8-7 8-3 62-1h30l-1-8v-11l4-16 6-11 9-10 8-6 11-5z" fill="#C0C0BF"/>
<path transform="translate(303,155)" d="m0 0h312l3 1v26h-336v-25l1-1z" fill="#9D9C9A"/>
<path transform="translate(141,752)" d="m0 0h1l2 12 3 10 6 11v3h2l3 5 6 4 10 3 13 1 90 1h24l71 1h217l70-1 48-1 17-1 8-3 7-3 5-2 1-5h2l2-7 2-2 2-7 1-3h2l1-9h1v9l-4 11-6 10-7 9-12 9-15 7-6 1h-515l-10-2-12-6-10-8-8-8-8-13-4-13z" fill="#B38159"/>
<path transform="translate(703,158)" d="m0 0h1v599l-1 1h-216l-98 1-192 1-1-1-1-53 2-1v41h36l181 3h153l135-1z" fill="#E4D9D2"/>
<path transform="translate(382,413)" d="m0 0 5 2 12 12 4 3-2 5-4 2-1 3-6 5-6 7-6 5-6 7-6 5-6 7-25 25h-2l-2 4-7 6-4-2-47-47v-5l16-16 5 2 13 12 7 8 2 1v2h2v2h2l2 3 3 1 2-4z" fill="#423E4D"/>
<path transform="translate(384,244)" d="m0 0 7 6 9 9 3 2-2 5-74 74-5 2-47-47-3-4 2-4 8-7 7-8 5 2 27 27v2l5-3 54-54z" fill="#403C4C"/>
<path transform="translate(480,281)" d="m0 0h65l72 1v25l-2 1-156 1-8-1-1-1v-25z" fill="#E2DEDD"/>
<path transform="translate(383,582)" d="m0 0 5 2 5 5 9 10-1 4-76 76-5-1-47-47-1-3 4-5 8-7 5-6 5 1 27 27 1 2 4-2 55-55z" fill="#413D4C"/>
<path transform="translate(492,619)" d="m0 0h42l82 1 1 1v24l-93 1h-73l-1-1v-25z" fill="#E2DEDD"/>
<path transform="translate(482,450)" d="m0 0h31l61 1v25l-1 1h-122l-1-1v-25z" fill="#E2DEDD"/>
<path transform="translate(443,42)" d="m0 0h14l10 5 5 4 6 12v15l-6 10-9 8-9 3h-8l-11-4-8-7-6-12v-12l5-10 8-8z" fill="#FCFCFC"/>
<path transform="translate(197,746)" d="m0 0h36l181 3h288v1l-83 1v1h-14l-13-1-142 1h-145l-5 1h-55l-5 1-11 1-3 1h-12l-3 3h-13l-1-1z" fill="#E2DDDC"/>
<path transform="translate(703,158)" d="m0 0h1v599l-1-4-77-1-12-1v-1h88z" fill="#DDD3CD"/>
<path transform="translate(656,752)" d="m0 0h45l2 1v4h-31l-15-3z" fill="#E2DEDD"/>
<path transform="translate(141,752)" d="m0 0h1l2 12 3 10 6 11v3h2l-1 4-9-14-4-13z" fill="#B5845D"/>
<path transform="translate(757,759)" d="m0 0h1v9l-4 11-6 10-3 3-1-2 1-3h2l2-7 2-2 2-7 1-3h2z" fill="#B5835B"/>
<path transform="translate(752,778)" d="m0 0 1 3-7 11-2-2 1-3h2l2-6z" fill="#B5845D"/>
</svg>
